<?xml version="1.0" encoding="utf-8"?>
<!-- Generator: Adobe Illustrator 24.3.0, SVG Export Plug-In . SVG Version: 6.00 Build 0)  -->
<svg version="1.1" id="Layer_1" xmlns="http://www.w3.org/2000/svg" xmlns:xlink="http://www.w3.org/1999/xlink" x="0px" y="0px"
	 viewBox="0 0 512 512" style="enable-background:new 0 0 512 512;" xml:space="preserve">
<g>
	<path d="M161.68,289.26c53.74,0,94.32-40.55,94.32-94.32s-40.58-94.32-94.32-94.32c-53.76,0-94.32,40.55-94.32,94.32
		S107.92,289.26,161.68,289.26z M188.63,314.79h-53.89C60.42,314.79,0,375.24,0,449.53v26.95h26.95h26.95h215.58h26.95h26.95v-26.95
		C323.37,375.24,262.92,314.79,188.63,314.79z M440.95,35.53l-38.11,38.11c35.61,35.63,55.26,83.03,55.26,133.37
		c0,50.37-19.66,97.76-55.26,133.39l38.11,38.11C486.76,332.66,512,271.76,512,207C512,142.26,486.76,81.37,440.95,35.53z"/>
	<path d="M364.71,111.74l-38.11,38.16c15.29,15.21,23.71,35.5,23.71,57.11c0,21.63-8.42,41.92-23.71,57.13l38.11,38.16
		c25.45-25.42,39.5-59.24,39.5-95.29C404.21,170.97,390.16,137.16,364.71,111.74z"/>
</g>
</svg>
